<?xml version="1.0" encoding="utf-8"?>
<!-- Generator: Adobe Illustrator 16.0.0, SVG Export Plug-In . SVG Version: 6.00 Build 0)  -->
<!DOCTYPE svg PUBLIC "-//W3C//DTD SVG 1.1//EN" "http://www.w3.org/Graphics/SVG/1.1/DTD/svg11.dtd">
<svg version="1.1" id="Layer_1" xmlns="http://www.w3.org/2000/svg" xmlns:xlink="http://www.w3.org/1999/xlink" x="0px" y="0px"
	 width="248px" height="121px" viewBox="0 0 248 121" enable-background="new 0 0 248 121" xml:space="preserve">
<g>
	<path fill="#F26722" d="M98.573,106.477c-0.208-1.39-0.33-1.767-1.018-3.145c-0.809-1.627-2.524-3.7-4.326-5.22
		c-1.271-1.081-2.87-2.188-4.165-2.89c-0.242-0.135-0.456-0.263-0.476-0.286c-0.023-0.028-0.373-0.21-0.77-0.415
		c-0.4-0.199-1.211-0.631-1.802-0.953c-1.702-0.925-2.937-1.551-4.146-2.099c-1.314-0.587-1.46-0.661-3.592-1.757
		c-0.888-0.455-2.116-1.062-2.729-1.353c-0.612-0.289-1.492-0.729-1.953-0.972c-0.458-0.246-1.15-0.582-1.531-0.754
		c-1.143-0.507-2.052-1.072-3.685-2.285c-0.816-0.604-1.525-1.154-1.578-1.213c-0.097-0.104-0.095-0.118,0.039-0.369
		c0.21-0.4,0.373-1.016,0.331-1.271c-0.041-0.272-0.111-0.372-0.406-0.577c-0.145-0.102-0.597-0.587-1.178-1.273
		c-0.989-1.166-1.772-2.014-2.764-2.992c-0.301-0.297-0.746-0.781-1.044-1.131c6.336-6.99,9.999-15.323,10.898-25.06
		c0.4-4.339-1.024-7.499-4.273-9.478c-0.964-0.494-2.099-0.801-3.398-0.919c-1.299-0.122-2.697,0.069-4.188,0.569
		c-1.496,0.502-2.621,1.221-3.382,2.161c0.362,1.181,0.461,2.668,0.296,4.47c-0.413,4.479-3.411,12.126-6.515,18.31
		c-0.051-0.043-0.104-0.087-0.155-0.13c-1.74-1.462-3.481-2.789-5.663-4.309c-1.754-1.215-2.475-1.648-3.054-1.826
		c-0.403-0.121-0.916-0.188-1.296-0.172c-0.395,0.02-1.03,0.125-1.259,0.21c-0.35,0.132-0.781,0.451-1.101,0.818
		c-0.328,0.375-0.499,0.801-0.594,1.476c-0.056,0.413-0.052,0.507,0.048,1.029c0.177,0.918,0.378,1.378,0.967,2.219
		c1.641,2.336,3.761,5.059,5.08,6.522c0.619,0.687,1.412,1.568,1.764,1.953c0.082,0.093,0.213,0.233,0.369,0.401
		c-0.331,0.412-0.646,0.775-0.923,1.025c-3.625,3.277-7.505,4.759-11.708,4.372c-2.536-0.235-4.646-1.052-6.335-2.454
		c-1.688-1.4-2.9-3.209-3.636-5.432c-1.299-4.157-1.711-8.804-1.237-13.941c0.566-6.139,2.17-12.047,4.814-17.724
		c2.643-5.677,6.706-10.649,10.926-13.632c4.718-3.333,9.144-4.758,12.884-4.59c3.64,0.168,6.618,2.806,6.618,7.021
		c0,1.81-0.503,4.39-1.508,7.74c4.222,0,7.806-1.475,10.754-4.423c1.61-1.672,2.415-3.651,2.415-5.928
		c0-3.484-1.461-5.963-4.11-8.544c-3.153-2.677-7.34-4.33-12.584-4.743C39.873,11.512,29.721,15.626,20.5,24.865
		c-3.81,3.818-6.687,8.342-9.003,13.746c-2.316,5.406-3.742,11.045-4.285,16.917c-0.83,9.007,0.779,16.521,4.832,22.55
		c4.053,6.023,10.386,9.434,18.99,10.229c6.808,0.629,13.391-0.816,19.861-4.122c2.011-1.026,2.941-1.509,3.896-2.192
		c0.003,0.002,0.006,0.006,0.01,0.008c0.798,0.678,1.901,1.645,2.454,2.146c0.553,0.503,1.511,1.3,2.131,1.774
		c0.616,0.479,1.282,0.993,1.477,1.146l0.363,0.279l0.335-0.052c0.183-0.031,0.417-0.099,0.519-0.157
		c0.495-0.278,0.579-0.306,0.66-0.228c0.039,0.042,0.428,0.579,0.857,1.192c0.899,1.275,1.475,2.249,1.861,3.15
		c0.15,0.34,0.457,1.013,0.688,1.496c0.734,1.527,1.276,2.908,2.596,6.635c0.358,1.019,0.879,2.393,1.154,3.059
		c0.729,1.766,1.831,4.161,2.249,4.892c0.56,0.981,1.547,2.505,1.914,2.956c0.183,0.224,0.406,0.515,0.505,0.647
		c0.292,0.425,1.376,1.579,1.825,1.947c0.235,0.197,0.567,0.491,0.736,0.656c0.482,0.467,1.867,1.409,2.821,1.916
		c0.816,0.436,2.304,1.095,2.96,1.312c0.35,0.117,1.912,0.498,2.53,0.616c0.426,0.082,0.587,0.145,0.995,0.381
		c0.453,0.267,1.438,0.714,1.904,0.863c0.542,0.177,1.386,0.357,1.868,0.396c0.645,0.056,1.42-0.047,2.266-0.29
		c1.061-0.303,1.947-0.954,2.596-1.908c0.516-0.762,1.063-1.994,1.18-2.65c0.039-0.212,0.094-0.31,0.406-0.644
		c0.603-0.668,1.158-1.605,1.525-2.567c0.4-1.061,0.494-1.559,0.512-2.729C98.698,107.479,98.681,107.203,98.573,106.477z
		 M67.012,84.789c0.173,0.106,0.447,0.26,0.612,0.344c0.159,0.084,0.585,0.342,0.95,0.571c1.095,0.702,2.089,1.286,2.618,1.547
		c0.279,0.138,0.935,0.454,1.461,0.708c0.529,0.254,1.303,0.643,1.724,0.858c0.42,0.22,0.828,0.414,0.902,0.435
		c0.224,0.059,1.002,0.438,2.693,1.309c0.88,0.451,2.188,1.109,2.905,1.461c2.18,1.058,4.098,2.188,5.2,3.055
		c2.271,1.791,4.062,3.504,5.103,4.875c1.849,2.449,3.176,5.046,3.945,7.727c0.142,0.495,0.255,0.908,0.251,0.92
		c-0.01,0.004-0.267-0.287-0.577-0.652c-0.529-0.628-2.106-2.277-3.325-3.479c-1.308-1.287-6.808-5.855-9.919-8.229
		c-0.727-0.559-1.782-1.334-2.346-1.721c-0.562-0.393-1.422-1.04-1.908-1.444c-0.487-0.4-1.523-1.207-2.305-1.798
		s-1.9-1.453-2.487-1.918c-0.587-0.473-1.533-1.184-2.103-1.586c-1.262-0.89-3.286-2.527-3.557-2.868
		c-0.106-0.142-0.188-0.261-0.177-0.28C66.686,84.613,66.833,84.684,67.012,84.789z M65.123,85.465
		c-0.165-0.149-0.169-0.177-0.027-0.268c0.059-0.041,0.121-0.076,0.133-0.078c0.01,0,0.114,0.086,0.234,0.2
		c0.571,0.526,2.404,2.052,3.932,3.267c0.931,0.742,2.295,1.852,3.031,2.459c0.733,0.607,1.996,1.618,2.801,2.24
		c2.264,1.766,2.821,2.232,3.852,3.249c0.53,0.515,1.306,1.263,1.729,1.655c1.268,1.184,2.575,2.512,3.366,3.419
		c2.334,2.666,3.167,3.71,4.885,6.129c0.477,0.675,0.938,1.312,1.019,1.421c0.261,0.346,1.312,1.987,1.287,2.022
		c-0.014,0.016-0.445-0.173-0.961-0.42c-1.135-0.542-2.802-1.5-3.74-2.152c-0.377-0.263-1.143-0.78-1.702-1.149
		c-1.136-0.762-2.482-1.814-3.596-2.815c-0.247-0.216-0.768-0.636-1.154-0.931c-0.707-0.533-0.707-0.541-1.255-1.295
		c-1.199-1.659-1.862-2.52-3.28-4.242c-1.435-1.752-2.226-2.759-3.276-4.17c-1.238-1.664-1.984-2.609-2.766-3.504
		c-0.463-0.53-1.229-1.438-1.704-2.012C67.208,87.616,65.665,85.947,65.123,85.465z M91.688,112.327
		c0.344,0.145,0.266,0.02,0.797,1.232c0.216,0.491,0.479,1.24,0.513,1.461c0.014,0.09-0.059,0.141-0.581,0.393
		c-0.326,0.16-0.684,0.313-0.797,0.349c-0.202,0.056-0.204,0.056-0.641-0.263c-0.981-0.719-2.153-1.767-3.137-2.803
		c-0.282-0.295-0.842-0.853-1.244-1.241c-0.548-0.53-1.064-1.111-2.089-2.352c-0.748-0.902-1.405-1.712-1.46-1.791
		c-0.063-0.082-0.103-0.16-0.093-0.168c0.006-0.016,0.14,0.07,0.289,0.185c0.15,0.118,0.755,0.53,1.343,0.927
		s1.378,0.926,1.757,1.193C87.7,110.388,89.955,111.597,91.688,112.327z M82.729,115.742c-1.111-0.439-2.232-0.974-3.037-1.44
		c-0.61-0.357-1.59-1.053-1.9-1.351c-0.145-0.149-0.459-0.42-0.696-0.616c-0.45-0.373-1.533-1.523-1.824-1.943
		c-0.094-0.134-0.31-0.408-0.475-0.617c-0.338-0.408-1.263-1.841-1.82-2.811c-0.418-0.73-1.517-3.125-2.245-4.894
		c-0.277-0.664-0.795-2.038-1.154-3.057c-1.341-3.777-1.859-5.102-2.633-6.714c-0.249-0.515-0.482-1.021-0.514-1.116
		c-0.034-0.093-0.052-0.172-0.04-0.172c0.106-0.02,5.693,8.803,7.326,11.574c0.416,0.707,1.107,1.842,1.527,2.514
		c0.888,1.416,3.031,4.486,3.779,5.421c0.28,0.35,0.685,0.864,0.898,1.146c0.701,0.927,2.394,2.744,3.29,3.546
		c1.062,0.941,1.096,0.974,1.072,0.978C84.193,116.206,83.075,115.884,82.729,115.742z M86.07,116.527
		c-0.045-0.043-0.424-0.369-0.846-0.726c-1.508-1.272-2.128-1.869-3.173-3.023c-0.573-0.636-1.213-1.382-1.425-1.665
		c-0.212-0.278-0.612-0.793-0.899-1.143c-0.746-0.93-2.762-3.824-3.65-5.24c-0.421-0.672-1.084-1.764-1.473-2.427
		c-1.229-2.083-6.294-10.149-7.033-11.189c-0.103-0.146-0.179-0.271-0.171-0.282c0.02-0.023,0.82,0.773,1.048,1.036
		c0.346,0.404,1.354,1.743,1.857,2.452c1.099,1.564,3.022,3.969,4.589,5.728c0.587,0.659,1.685,1.763,2.299,2.307
		c0.383,0.342,2.058,2.36,2.613,3.146c0.377,0.541,1.001,1.307,1.539,1.899c0.192,0.208,0.638,0.727,0.985,1.158
		c0.871,1.057,1.951,2.273,2.628,2.956c1.718,1.739,2.643,2.557,4.529,3.985c0.73,0.55,0.863,0.672,0.768,0.688
		c-0.063,0.008-0.458,0.09-0.876,0.181C88.153,116.63,86.292,116.72,86.07,116.527z M94.784,115.554
		c-0.434,0.923-0.915,1.473-1.7,1.936c-0.467,0.279-1.205,0.522-1.878,0.625c-0.705,0.102-2.157-0.13-3.006-0.495l-0.33-0.142
		l0.464-0.039c0.467-0.043,2.018-0.35,2.689-0.534l0.371-0.102l0.347,0.146c0.785,0.321,1.367,0.255,1.838-0.225
		c0.278-0.282,0.443-0.624,0.443-0.918l0.004-0.208l0.464-0.271c0.251-0.146,0.48-0.274,0.502-0.286
		C95.04,115.009,95.021,115.048,94.784,115.554z M94.823,114.047c-0.31,0.216-0.922,0.604-0.97,0.612
		c-0.006,0-0.066-0.173-0.125-0.389c-0.065-0.212-0.22-0.629-0.34-0.919c-0.124-0.295-0.22-0.542-0.214-0.542
		c0.004-0.004,0.138,0.027,0.294,0.07c0.283,0.083,1.133,0.256,1.708,0.346c0.27,0.048,0.311,0.071,0.303,0.153
		C95.462,113.532,95.256,113.744,94.823,114.047z M95.546,112.287c-0.039,0.079-1.366-0.145-2.244-0.381l-0.626-0.172l-0.192-0.429
		c-0.181-0.4-1.154-1.955-1.637-2.606c-0.114-0.161-0.603-0.84-1.082-1.516c-1.724-2.418-2.554-3.463-4.882-6.127
		c-0.412-0.467-1.131-1.232-1.598-1.699c-0.468-0.468-0.845-0.853-0.837-0.866c0.01-0.012,2.559,1.722,3.498,2.378
		c0.656,0.457,4.156,3.484,4.928,4.254c1.508,1.503,2.633,2.686,3.298,3.467c1.028,1.209,1.323,1.59,1.335,1.727
		C95.538,110.701,95.565,112.232,95.546,112.287z M97.297,110.753l-0.194,0.51l-0.183-0.428c-0.098-0.239-0.259-0.55-0.357-0.699
		l-0.177-0.267l-0.072-0.789c-0.066-0.723-0.098-0.863-0.344-1.731c-0.789-2.761-2.124-5.354-4.079-7.937
		c-0.245-0.326-0.696-0.861-1.005-1.195c-0.522-0.567-1.928-1.918-2.11-2.026c-0.045-0.029-0.082-0.068-0.09-0.095
		c-0.008-0.068,0.062-0.055,0.28,0.081c1.926,1.113,3.447,2.273,4.888,3.729c1.622,1.63,2.621,3.076,3.383,4.879
		c0.375,0.891,0.565,2.041,0.55,3.337C97.772,109.292,97.686,109.755,97.297,110.753z"/>
	<g>
		<path fill="#5C5D5D" d="M133.751,27.979c2.21,0,4.103-0.77,5.681-2.312c1.57-1.539,2.359-3.415,2.359-5.625
			c0-2.213-0.789-4.105-2.359-5.682c-1.578-1.572-3.471-2.359-5.681-2.359c-2.211,0-4.088,0.787-5.627,2.359
			c-1.542,1.576-2.312,3.469-2.312,5.682c0,2.21,0.77,4.086,2.312,5.625C129.663,27.209,131.54,27.979,133.751,27.979z"/>
		<path fill="#5C5D5D" d="M237.622,45.971c-4.118-3.952-9.261-5.931-15.425-5.931c-8.041,0-14.676,2.513-19.901,7.538
			c-5.163,4.959-7.738,11.66-7.738,20.102c0,2.486,0.377,4.799,1.088,6.957c-1.939,3.447-4.276,5.205-7.021,5.205
			c-2.076,0-3.113-1.543-3.113-4.624c0-1.673,0.77-7.604,2.312-17.789c0.4-2.614,0.601-4.39,0.601-5.327
			c0-3.482-1.307-6.365-3.918-8.645c-2.615-2.276-6.215-3.417-10.805-3.417s-8.527,1.61-11.81,4.825
			c-0.2-3.282-2.548-4.926-7.035-4.926c-1.477,0-3.62,0.369-6.436,1.105l-3.854,33.038c-0.268,0.468-0.526,0.938-0.817,1.386
			c-1.841,2.851-3.852,4.271-6.03,4.271c-2.175,0-3.399-0.869-3.667-2.613c-0.134-0.669-0.2-1.458-0.2-2.361
			c0-0.904,0.165-2.025,0.503-3.368c0-0.2,1.308-10.384,3.918-30.553c-1.405-0.468-3.031-0.702-4.872-0.702
			c-1.846,0-3.706,0.317-5.579,0.953c-1.877,0.637-3.152,1.559-3.82,2.764l-2.709,23.261c-2.269,2.8-4.837,5.323-7.793,7.495
			c-4.928,3.617-9.6,5.428-14.021,5.428c-3.687,0-6.584-1.29-8.695-3.871c-2.108-2.578-3.165-6.246-3.165-11.005
			c0-4.757,1.205-8.91,3.616-12.462c2.277-3.281,4.86-4.927,7.742-4.927c3.883,0,5.826,2.179,5.826,6.532
			c0,1.811-0.503,4.391-1.508,7.741c4.225,0,7.805-1.475,10.758-4.423c1.605-1.673,2.41-3.651,2.41-5.929
			c0-3.484-1.508-6.298-4.522-8.444c-3.016-2.145-7.103-3.216-12.261-3.216c-6.636,0-12.631,2.481-17.994,7.438
			c-5.358,4.96-8.04,11.424-8.04,19.396c0,6.568,2.062,11.896,6.184,15.982c4.118,4.088,9.159,6.129,15.127,6.129
			c4.421,0,8.842-0.937,13.267-2.812c4.087-1.742,7.502-3.885,10.251-6.434c0.649-0.591,1.271-1.176,1.87-1.753
			c0.153,3.132,1.193,5.742,3.206,7.784c2.175,2.21,5.508,3.316,10,3.316c3.631,0,6.843-1.093,9.642-3.244l-0.298,2.542h13.568
			c0.134-1.61,1.409-11.594,3.82-29.952c0.404-2.882,1.358-5.276,2.866-7.187c1.507-1.91,3.349-2.864,5.527-2.864
			c2.175,0,3.733,0.603,4.672,1.811c0.938,1.205,1.41,2.713,1.41,4.522l-2.415,22.411c0,2.813,1.005,5.495,3.016,8.041
			c2.01,2.547,5.092,3.818,9.245,3.818c6.004,0,10.777-2.756,14.335-8.265c0.585,0.736,1.201,1.455,1.899,2.136
			c4.186,4.088,9.862,6.129,17.035,6.129c7.17,0,13.282-2.596,18.343-7.789c5.057-5.19,7.589-12.11,7.589-20.754
			C243.806,54.749,241.745,49.926,237.622,45.971z M226.366,75.418c-2.179,3.553-4.876,5.328-8.091,5.328
			c-3.216,0-5.61-1.272-7.186-3.82c-1.574-2.545-2.363-5.76-2.363-9.646c0.2-5.494,1.374-10.051,3.518-13.671
			c2.144-3.618,4.81-5.426,7.99-5.426c3.184,0,5.543,1.405,7.086,4.221c1.543,2.681,2.312,6.298,2.312,10.855
			C229.633,67.814,228.542,71.869,226.366,75.418z"/>
	</g>
</g>
<rect id="_x3C_Slice_x3E_" fill="none" width="248" height="121"/>
</svg>
